/* XPM */
static char *inputbox_ok_xpm[] = {
/* width height num_colors chars_per_pixel */
"    15    15      256            2",
/* colors */
"`` c None",
"`. c #cde3c9",
"`# c #81b879",
"`a c #6cb261",
"`b c #73bb67",
"`c c #77be6b",
"`d c #70b764",
"`e c #62a757",
"`f c #7db375",
"`g c #d2e4cf",
"`h c #acd0a5",
"`i c #7ab86d",
"`j c #b5e6a9",
"`k c #caffbe",
"`l c #b6fbaa",
"`m c #a4ea99",
"`n c #99df8d",
"`o c #8fd585",
"`p c #7ac06f",
"`q c #4f9a43",
"`r c #95be8f",
"`s c #afd2a9",
"`t c #89c67c",
"`u c #d6ffca",
"`v c #ccffc0",
"`w c #adf5a1",
"`x c #9ce28f",
"`y c #8fd684",
"`z c #89cf7e",
"`A c #86cb7a",
"`B c #7fc775",
"`C c #7ac16e",
"`D c #49953d",
"`E c #8bb784",
"`F c #dbead9",
"`G c #7fbe74",
"`H c #d8ffcc",
"`I c #c6ffba",
"`J c #a7f09b",
"`K c #95dc89",
"`L c #88ce7d",
"`M c #81c875",
"`N c #76bf6b",
"`O c #67ad5a",
"`P c #77b96b",
"`Q c #74b968",
"`R c #3e8932",
"`S c #bdd5b9",
"`T c #9cc896",
"`U c #aae29e",
"`V c #cbffbf",
"`W c #a9f29d",
"`X c #95db89",
"`Y c #84cb78",
"`Z c #7dc371",
"`0 c #7cc271",
"`1 c #73bc67",
"`2 c #539f46",
"`3 c #94bc8c",
"`4 c #d4e7d1",
"`5 c #88c17f",
"`6 c #59a04d",
"`7 c #5f9b56",
"`8 c #6fb564",
".` c #c1ffb5",
".. c #aff6a3",
".# c #92da86",
".a c #80c974",
".b c #7dc471",
".c c #71bb66",
".d c #4f9c44",
".e c #83b37b",
".f c #f8faf8",
".g c #f3f9f2",
".h c #83bc7b",
".i c #5ca351",
".j c #448c3a",
".k c #77c06c",
".l c #b4faa8",
".m c #9de491",
".n c #85cb7a",
".o c #6db161",
".p c #70b864",
".q c #75be6a",
".r c #509d44",
".s c #83b37a",
".t c #f2f6f1",
".u c #f0f7ef",
".v c #89c081",
".w c #59a34c",
".x c #5ba250",
".y c #428b37",
".z c #78be6d",
".A c #a7ee9b",
".B c #93d888",
".C c #c5e7bf",
".D c #adcba9",
".E c #529c46",
".F c #4e9d42",
".G c #81b179",
".H c #f2f6f0",
".I c #f2f9f2",
".J c #8cc084",
".K c #52a046",
".L c #57a04c",
".M c #599f4f",
".N c #448d39",
".O c #69b15d",
".P c #96de8a",
".Q c #87cd7c",
".R c #cdeac9",
".S c #90ba89",
".T c #73a96a",
".U c #f0f4ef",
".V c #f4f9f3",
".W c #8bc084",
".X c #51a044",
".Y c #57a04b",
".Z c #569d4b",
".0 c #539a49",
".1 c #3e8834",
".2 c #6faf65",
".3 c #89cf7d",
".4 c #7fc672",
".5 c #80c174",
".6 c #d7ecd4",
".7 c #f8f9f7",
".8 c #edf3eb",
"#` c #f6faf6",
"#. c #8bc083",
"## c #4e9e43",
"#a c #55a04b",
"#b c #519847",
"#c c #4f9544",
"#d c #3e8533",
"#e c #a3c89c",
"#f c #70b965",
"#g c #80c473",
"#h c #6ab35d",
"#i c #7dbd73",
"#j c #e4f2e2",
"#k c #e9f3e7",
"#l c #83bb7a",
"#m c #519e45",
"#n c #569f4a",
"#o c #579d4b",
"#p c #519846",
"#q c #509544",
"#r c #448b39",
"#s c #74a76c",
"#t c #deebdc",
"#u c #6fb563",
"#v c #6fb663",
"#w c #62ac56",
"#x c #75b56b",
"#y c #74b16a",
"#z c #529d46",
"#A c #559e49",
"#B c #559c4a",
"#C c #509746",
"#D c #4e9544",
"#E c #4c9241",
"#F c #317c26",
"#G c #c4dac0",
"#H c #98be92",
"#I c #3f8b34",
"#J c #66ab5a",
"#K c #67ac5b",
"#L c #5aa24f",
"#M c #569e4a",
"#N c #559d4a",
"#O c #509645",
"#P c #4e9444",
"#Q c #4b9141",
"#R c #307b24",
"#S c #75a76e",
"#T c #9bc096",
"#U c #438b38",
"#V c #48923d",
"#W c #519845",
"#X c #559b4b",
"#Y c #3f8734",
"#Z c #2d7a22",
"#0 c #78a973",
"#1 c #dde9da",
"#2 c #90b989",
"#3 c #4e9045",
"#4 c #36802b",
"#5 c #3c8532",
"#6 c #3b8431",
"#7 c #38812d",
"#8 c #529148",
"a` c #c3d9c0",
"a. c #000000",
"a# c #000000",
"aa c #000000",
"ab c #000000",
"ac c #000000",
"ad c #000000",
"ae c #000000",
"af c #000000",
"ag c #000000",
"ah c #000000",
"ai c #000000",
"aj c #000000",
"ak c #000000",
"al c #000000",
"am c #000000",
"an c #000000",
"ao c #000000",
"ap c #000000",
"aq c #000000",
"ar c #000000",
"as c #000000",
"at c #000000",
"au c #000000",
"av c #000000",
"aw c #000000",
"ax c #000000",
"ay c #000000",
"az c #000000",
"aA c #000000",
"aB c #000000",
"aC c #000000",
"aD c #000000",
"aE c #000000",
"aF c #000000",
"aG c #000000",
"aH c #000000",
"aI c #000000",
"aJ c #000000",
"aK c #000000",
"aL c #000000",
"aM c #000000",
"aN c #000000",
"aO c #000000",
"aP c #000000",
"aQ c #000000",
"aR c #000000",
"aS c #000000",
"aT c #000000",
"aU c #000000",
"aV c #000000",
"aW c #000000",
"aX c #000000",
"aY c #000000",
"aZ c #000000",
"a0 c #000000",
"a1 c #000000",
"a2 c #000000",
"a3 c #000000",
"a4 c #000000",
"a5 c #000000",
"a6 c #000000",
"a7 c #000000",
"a8 c #000000",
/* pixels */
"```````.`#`a`b`c`d`e`f`g``````",
"`````h`i`j`k`l`m`n`o`p`q`r````",
"```s`t`u`v`w`x`y`z`A`B`C`D`E``",
"`F`G`H`I`J`K`L`M`M`N`O`P`Q`R`S",
"`T`U`V`W`X`Y`Z`0`1`2`3`4`5`6`7",
"`8.`...#.a.b`p.c.d.e.f.g.h.i.j",
".k.l.m.n.o.p.q.r.s.t.u.v.w.x.y",
".z.A.B.C.D.E.F.G.H.I.J.K.L.M.N",
".O.P.Q.R``.S.T.U.V.W.X.Y.Z.0.1",
".2.3.4.5.6.7.8#`#.###a.Z#b#c#d",
"#e#f#g#h#i#j#k#l#m#n#o#p#q#r#s",
"#t#p#u#v#w#x#y#z#A#B#C#D#E#F#G",
"``#H#I#J#K#L#M#N.0#O#P#Q#R#S``",
"````#T#U#V#W#X#X#O#Q#Y#Z#0````",
"``````#1#2#3#4#5#6#7#8a```````"
};
