/* XPM */
static char *inputbox_error_xpm[] = {
/* width height num_colors chars_per_pixel */
"    15    15      256            2",
/* colors */
"`` c None",
"`. c #faf6e4",
"`# c #e3c839",
"`a c #e6cd39",
"`b c #c9b63b",
"`c c #d3c9a5",
"`d c #eddc92",
"`e c #f0e224",
"`f c #f8f651",
"`g c #d4c40e",
"`h c #947b19",
"`i c #fcfcfb",
"`j c #fdfbf0",
"`k c #e4ca34",
"`l c #fefc41",
"`m c #ffff49",
"`n c #ffff19",
"`o c #957b0b",
"`p c #cfc49a",
"`q c #f2e48d",
"`r c #efde40",
"`s c #feff55",
"`t c #e2e01d",
"`u c #fdfe1e",
"`v c #c6b909",
"`w c #9d8526",
"`x c #fcf9e5",
"`y c #e9cf3e",
"`z c #fffd70",
"`A c #a0a24e",
"`B c #211f2b",
"`C c #8e8b30",
"`D c #ffff0e",
"`E c #967b09",
"`F c #d0c8af",
"`G c #f0df95",
"`H c #f2df4d",
"`I c #ffff7d",
"`J c #61633c",
"`K c #00004d",
"`L c #544a3b",
"`M c #ffff12",
"`N c #bfac02",
"`O c #9b842c",
"`P c #fdfaf1",
"`Q c #e4c944",
"`R c #fefa82",
"`S c #ffff69",
"`T c #8b8631",
"`U c #020060",
"`V c #9a8b27",
"`W c #ffff0f",
"`X c #f5e90b",
"`Y c #90760a",
"`Z c #ddd8c7",
"`0 c #f2e39b",
"`1 c #ecda4c",
"`2 c #ffff8d",
"`3 c #ffff45",
"`4 c #bab21e",
"`5 c #200f81",
"`6 c #d1c422",
"`7 c #fffc04",
"`8 c #fdf717",
".` c #b39805",
".. c #9e8a40",
".# c #fefdf1",
".a c #e6cd48",
".b c #faf673",
".c c #ffff6e",
".d c #ffff26",
".e c #c4c215",
".f c #2c1f5e",
".g c #ddd411",
".h c #fff000",
".i c #faf015",
".j c #ecd706",
".k c #8f7509",
".l c #e7e4dc",
".m c #f7eaa6",
".n c #ead63b",
".o c #ffff40",
".p c #fffd0f",
".q c #d5d00a",
".r c #60492c",
".s c #e7d906",
".t c #ffe600",
".u c #f9e20d",
".v c #fcf014",
".w c #a88c03",
".x c #aa9959",
".y c #fefcf0",
".z c #e8ce47",
".A c #f7f34a",
".B c #ffff46",
".C c #fff318",
".D c #ffe905",
".E c #fff302",
".F c #e6ce09",
".G c #ffed00",
".H c #ffdc00",
".I c #f9d402",
".J c #faef19",
".K c #e5cf09",
".L c #91760d",
".M c #f7f6f0",
".N c #f5e7a8",
".O c #eacf1e",
".P c #feff39",
".Q c #fff21c",
".R c #ffe007",
".S c #feec03",
".T c #a39604",
".U c #4f4d07",
".V c #b2a107",
".W c #face00",
".X c #f5da0c",
".Y c #fded15",
".Z c #a58705",
".0 c #a7985d",
".1 c #d7b738",
".2 c #f7dc1b",
".3 c #fff31a",
".4 c #ffda06",
".5 c #ffda03",
".6 c #f7e600",
".7 c #3a3501",
".8 c #00005e",
"#` c #736461",
"#. c #ffe800",
"## c #facd00",
"#a c #f7ce01",
"#b c #fce411",
"#c c #e5c102",
"#d c #917f3f",
"#e c #b7970f",
"#f c #e2bc0b",
"#g c #e8c306",
"#h c #e4bb02",
"#i c #e2b802",
"#j c #e7c201",
"#k c #a78b02",
"#l c #7a6446",
"#m c #cfac36",
"#n c #e3bc01",
"#o c #dcb401",
"#p c #dfb501",
"#q c #e2ba02",
"#r c #e8be01",
"#s c #ae8f17",
"#t c #d8c267",
"#u c #987c07",
"#v c #937606",
"#w c #927606",
"#x c #967a06",
"#y c #967a05",
"#z c #947805",
"#A c #927605",
"#B c #957905",
"#C c #a08829",
"#D c #000000",
"#E c #000000",
"#F c #000000",
"#G c #000000",
"#H c #000000",
"#I c #000000",
"#J c #000000",
"#K c #000000",
"#L c #000000",
"#M c #000000",
"#N c #000000",
"#O c #000000",
"#P c #000000",
"#Q c #000000",
"#R c #000000",
"#S c #000000",
"#T c #000000",
"#U c #000000",
"#V c #000000",
"#W c #000000",
"#X c #000000",
"#Y c #000000",
"#Z c #000000",
"#0 c #000000",
"#1 c #000000",
"#2 c #000000",
"#3 c #000000",
"#4 c #000000",
"#5 c #000000",
"#6 c #000000",
"#7 c #000000",
"#8 c #000000",
"a` c #000000",
"a. c #000000",
"a# c #000000",
"aa c #000000",
"ab c #000000",
"ac c #000000",
"ad c #000000",
"ae c #000000",
"af c #000000",
"ag c #000000",
"ah c #000000",
"ai c #000000",
"aj c #000000",
"ak c #000000",
"al c #000000",
"am c #000000",
"an c #000000",
"ao c #000000",
"ap c #000000",
"aq c #000000",
"ar c #000000",
"as c #000000",
"at c #000000",
"au c #000000",
"av c #000000",
"aw c #000000",
"ax c #000000",
"ay c #000000",
"az c #000000",
"aA c #000000",
"aB c #000000",
"aC c #000000",
"aD c #000000",
"aE c #000000",
"aF c #000000",
"aG c #000000",
"aH c #000000",
"aI c #000000",
"aJ c #000000",
"aK c #000000",
"aL c #000000",
"aM c #000000",
"aN c #000000",
"aO c #000000",
"aP c #000000",
"aQ c #000000",
"aR c #000000",
"aS c #000000",
"aT c #000000",
"aU c #000000",
"aV c #000000",
"aW c #000000",
"aX c #000000",
"aY c #000000",
"aZ c #000000",
"a0 c #000000",
"a1 c #000000",
"a2 c #000000",
"a3 c #000000",
"a4 c #000000",
"a5 c #000000",
"a6 c #000000",
"a7 c #000000",
"a8 c #000000",
/* pixels */
"```````````.`#`a`b`c``````````",
"```````````d`e`f`g`h`i````````",
"`````````j`k`l`m`n`o`p````````",
"`````````q`r`s`t`u`v`w````````",
"```````x`y`z`A`B`C`D`E`F``````",
"```````G`H`I`J`K`L`M`N`O``````",
"`````P`Q`R`S`T`U`V`W`X`Y`Z````",
"`````0`1`2`3`4`5`6`7`8.`..````",
"``.#.a.b.c.d.e.f.g.h.i.j.k.l``",
"``.m.n.c.o.p.q.r.s.t.u.v.w.x``",
".y.z.A.B.C.D.E.F.G.H.I.J.K.L.M",
".N.O.P.Q.R.S.T.U.V.t.W.X.Y.Z.0",
".1.2.3.4.5.6.7.8#`#.###a#b#c#d",
"#e#f#g#h#i#j#k#l#m#n#o#p#q#r#s",
"#t#u#v#v#w#v#x#y#z#A#w#v#v#B#C"
};
